<mxfile host="app.diagrams.net" modified="2023-08-29T11:13:15.635Z" agent="Mozilla/5.0 (X11; Linux x86_64) AppleWebKit/537.36 (KHTML, like Gecko) Chrome/116.0.0.0 Safari/537.36" etag="G0sFEwmr4i0ULsUsIC6f" version="21.6.6" type="github">
  <diagram name="Page-1" id="9AsOzyfTxAAt59TYpuIn">
    <mxGraphModel dx="1434" dy="811" grid="1" gridSize="10" guides="1" tooltips="1" connect="1" arrows="1" fold="1" page="1" pageScale="1" pageWidth="827" pageHeight="1169" math="0" shadow="0">
      <root>
        <mxCell id="0" />
        <mxCell id="1" parent="0" />
        <mxCell id="MmiJt0va4LWQRkHMWDSl-2" value="" style="rounded=0;whiteSpace=wrap;html=1;" vertex="1" parent="1">
          <mxGeometry x="100" y="220" width="940" height="560" as="geometry" />
        </mxCell>
        <mxCell id="MmiJt0va4LWQRkHMWDSl-3" value="" style="rounded=0;whiteSpace=wrap;html=1;" vertex="1" parent="1">
          <mxGeometry x="130" y="270" width="870" height="480" as="geometry" />
        </mxCell>
        <mxCell id="MmiJt0va4LWQRkHMWDSl-5" value="&lt;b&gt;&lt;font color=&quot;#ff8000&quot; style=&quot;font-size: 18px;&quot;&gt;Ubuntu 22.04&lt;/font&gt;&lt;/b&gt;" style="text;html=1;strokeColor=none;fillColor=none;align=center;verticalAlign=middle;whiteSpace=wrap;rounded=0;" vertex="1" parent="1">
          <mxGeometry x="110" y="230" width="160" height="30" as="geometry" />
        </mxCell>
        <mxCell id="MmiJt0va4LWQRkHMWDSl-6" value="" style="rounded=0;whiteSpace=wrap;html=1;" vertex="1" parent="1">
          <mxGeometry x="160" y="310" width="810" height="420" as="geometry" />
        </mxCell>
        <mxCell id="MmiJt0va4LWQRkHMWDSl-7" value="&lt;b&gt;&lt;font color=&quot;#0000ff&quot; style=&quot;font-size: 16px;&quot;&gt;Gclou Auth&lt;/font&gt;&lt;/b&gt;" style="text;html=1;strokeColor=none;fillColor=none;align=center;verticalAlign=middle;whiteSpace=wrap;rounded=0;" vertex="1" parent="1">
          <mxGeometry x="130" y="270" width="120" height="30" as="geometry" />
        </mxCell>
        <mxCell id="MmiJt0va4LWQRkHMWDSl-8" value="" style="rounded=0;whiteSpace=wrap;html=1;" vertex="1" parent="1">
          <mxGeometry x="180" y="350" width="770" height="360" as="geometry" />
        </mxCell>
        <mxCell id="MmiJt0va4LWQRkHMWDSl-9" value="&lt;b&gt;&lt;font style=&quot;font-size: 13px;&quot;&gt;BACKUP-SCRIPT.SH&lt;/font&gt;&lt;/b&gt;" style="text;html=1;strokeColor=none;fillColor=none;align=center;verticalAlign=middle;whiteSpace=wrap;rounded=0;" vertex="1" parent="1">
          <mxGeometry x="160" y="310" width="140" height="30" as="geometry" />
        </mxCell>
      </root>
    </mxGraphModel>
  </diagram>
</mxfile>
